<?xml version="1.0" ?><svg id="Graphics" style="enable-background:new 0 0 512 512;" version="1.1" viewBox="0 0 512 512" xml:space="preserve" xmlns="http://www.w3.org/2000/svg" xmlns:xlink="http://www.w3.org/1999/xlink"><style type="text/css">
	.st0{fill:url(#SVGID_1_);}
	.st1{fill:#F72585;}
	.st2{fill:#FAAF3D;}
	.st3{fill:url(#SVGID_2_);}
	.st4{fill:#BC832E;}
	.st5{fill:#231F20;}
	.st6{fill:url(#SVGID_3_);}
	.st7{fill:url(#SVGID_4_);}
	.st8{opacity:0.3;fill:#111C3A;}
	.st9{fill:#FBA5A6;}
	.st10{fill:#FFFFFF;}
	.st11{fill:#FEB423;}
	.st12{fill:url(#SVGID_5_);}
	.st13{fill:#FA8788;}
	.st14{fill:#5C629E;}
	.st15{fill:#99A7D8;}
	.st16{fill:#D3DAED;}
	.st17{fill:#293241;}
	.st18{fill:url(#SVGID_6_);}
	.st19{fill:#FCCF8B;}
	.st20{fill:#FB9697;}
	.st21{fill:#FF5722;}
	.st22{fill:#4361EE;}
	.st23{fill:#3249B3;}
	.st24{fill:url(#XMLID_2_);}
	.st25{fill:url(#SVGID_7_);}
</style><g id="Scene_08"><g><linearGradient gradientUnits="userSpaceOnUse" id="SVGID_1_" x1="266.7515" x2="246.8362" y1="576.2517" y2="105.9521"><stop offset="0" style="stop-color:#ECEBFA"/><stop offset="1" style="stop-color:#F6F7FE"/></linearGradient><path class="st0" d="M486.1,285.8c1.4-4.1,2.6-8.3,3.4-12.6c5.8-31.6-8.9-66.5-33-81.8c-17-10.8-36.3-14.4-54.6-21.2    c-17.8-6.6-34.4-18.1-49-31.6c-12.3-11.4-23.4-24.7-36.3-35.2c-56.4-46.1-137.7-27.6-175.7,38.7c-12.4,21.7-19.8,46.9-32,68.7    c-28,50.1-88.1,86.2-88.5,152.9c-0.2,35.3,19.3,73.1,40.5,98.5h385c12-28.2-3.2-62.4,1.9-93.3    C453.1,337.2,476.1,314.5,486.1,285.8z"/><g><g><path class="st1" d="M464.8,463.2c-1.1,0-2-0.9-2-2V135c0-12.8-10.4-23.3-23.3-23.3H176.3c-12.8,0-23.3,10.4-23.3,23.3v326.2      c0,1.1-0.9,2-2,2c-1.1,0-2-0.9-2-2V135c0-15,12.2-27.3,27.3-27.3h263.2c15,0,27.3,12.2,27.3,27.3v326.2      C466.8,462.3,465.9,463.2,464.8,463.2z"/></g><g><path class="st1" d="M419.2,165.9H151c-1.1,0-2-0.9-2-2c0-1.1,0.9-2,2-2h268.2c1.1,0,2,0.9,2,2      C421.2,165,420.3,165.9,419.2,165.9z"/></g><g><path class="st2" d="M192,137.8c0,3.4-2.8,6.2-6.2,6.2s-6.2-2.8-6.2-6.2s2.8-6.2,6.2-6.2S192,134.4,192,137.8z"/></g><g><circle class="st2" cx="208.5" cy="137.8" r="6.2"/></g><g><path class="st2" d="M237.5,137.8c0,3.4-2.8,6.2-6.2,6.2c-3.4,0-6.2-2.8-6.2-6.2s2.8-6.2,6.2-6.2      C234.7,131.6,237.5,134.4,237.5,137.8z"/></g></g><g><linearGradient gradientUnits="userSpaceOnUse" id="SVGID_2_" x1="154.9906" x2="112.097" y1="338.2096" y2="285.6139"><stop offset="0" style="stop-color:#F18805"/><stop offset="0.2771" style="stop-color:#F28B09"/><stop offset="0.5367" style="stop-color:#F39214"/><stop offset="0.7887" style="stop-color:#F6A027"/><stop offset="1" style="stop-color:#FAAF3D"/></linearGradient><path class="st3" d="M99.7,329.1c-0.1-0.2-0.2-0.5-0.4-0.7c-1.1-2.5-1.3-5.3-1.3-8c0.1-3.1,0.5-6.2,1.7-9     c0.1-0.3,0.3-0.6,0.4-0.9c1.5-3,3.7-5.5,5.9-7.9c1-1.1,2.2-2,2.7-3.4c0.6-1.7,1.3-3.4,1.9-5.1c0.5-1.3,1-2.7,1.8-3.8     c1.7-2.2,4.4-3.3,7.2-3.5c2.7-0.2,5.5,0.2,8.2,0.6c5.6,0.7,11.4,0.9,17-0.4c3.1-0.7,6.2-1.9,9.4-2.1c3.2-0.2,6.8,0.9,8.4,3.8     c0.9,1.6,0.9,3.3,0.9,5.1c0,0.7,0.1,1.2,0.1,1.9c0.2,3.3-1.2,7.2-2.3,10.3c-2.6,7.4-6.8,15.1-14.3,17.5c-3,1-6.1,0.9-9.2,0.8     c-1.1-0.1-2.4-0.4-3.5-0.3c-1.1,0.1-1.9,1.1-2.7,1.8c-4.2,3.8-8.8,7.5-14.3,9C110.9,336.8,102.9,334.9,99.7,329.1z"/><path class="st4" d="M117.5,295.3C117.5,295.3,117.4,295.3,117.5,295.3c-3-0.4-3.5-4.5-0.8-5.7c1.2-0.5,2.5-0.8,3.7-0.9     c2.7-0.2,5.5,0.2,8.2,0.6c5.6,0.7,11.4,0.9,17-0.4c3.1-0.7,6.2-1.9,9.4-2.1c2.3-0.1,4.8,0.4,6.6,1.8c-0.9,1.6-2.7,2.9-4.5,3.7     c-2.1,0.9-4.4,1.4-6.8,1.5c-4.7,0.2-9.7-1.1-13.9,0.9c-1.2,0.6-2.3,1.4-3.6,1.8c-3.9,1.2-7.9-1.9-11.9-1.4     C119.7,295.1,118.6,295.4,117.5,295.3z"/><path class="st5" d="M158.2,252.3c0.3-0.7,0.7-1.3,1-2c1.3-2.4,3-4.6,4.9-6.6c1.6-1.7,3.3-3.2,5.4-4.3c2.2-1.1,3.8-2.9,5.9-4.1     c2.3-1.3,5-2.2,7.7-2.3c0.4,0,0.9,0,1.3,0.2c0.4,0.2,0.5,0.4,0.7,0.8c0.4,0.6,1.2,0.9,1.7,1.4c0.8,0.7,1.5,1.7,2.5,2.2     c0.4,0.2,0.8,0.4,1.1,0.6c0.7,0.4,1.3,0.9,1.9,1.5c1.2,1.1,2.1,2.5,2.8,3.9c0.9,1.8,1.5,3.8,1.9,5.8c0.1,0.7,0.2,1.3,0.4,2     c0.2,0.5,0.5,1,0.7,1.5c0.6,1.7,0.6,3.6,0.7,5.4c0.1,3.7-0.4,7.5-1.2,11.1c-1,4.4-2.3,8.7-3.7,12.9c-3.2,9.8-6.3,20.4-3.3,30.3     c-7.9,0.4-15.7,0.8-23.6,1.1c-0.6,0-1.3,0-1.8-0.3c-0.5-0.3-0.7-0.9-0.9-1.5c-2.4-7.2-4.4-14.6-5.9-22.1     c-0.6-3.2-1.2-6.4-1.7-9.6c-0.5-3.3-1.2-6.5-1.4-9.9c0-0.4-0.1-0.7-0.1-1.1C155.1,263.5,155.8,257.6,158.2,252.3z"/><linearGradient gradientUnits="userSpaceOnUse" id="SVGID_3_" x1="176.932" x2="271.4001" y1="326.9888" y2="420.4355"><stop offset="0" style="stop-color:#F18805"/><stop offset="0.2771" style="stop-color:#F28B09"/><stop offset="0.5367" style="stop-color:#F39214"/><stop offset="0.7887" style="stop-color:#F6A027"/><stop offset="1" style="stop-color:#FAAF3D"/></linearGradient><path class="st6" d="M168.9,317.4c0,0,30,90.9,66.7,95.1c18.4,2.1,47.7,5.7,47.4-6.5c-0.4-13.2-31.1-41-40.4-50.3l-51-50.9     c-3.7-3.7-9.2-5.4-14.3-4C172.2,302,167.5,306.1,168.9,317.4z"/><linearGradient gradientUnits="userSpaceOnUse" id="SVGID_4_" x1="149.1237" x2="153.2088" y1="465.9158" y2="342.3413"><stop offset="0" style="stop-color:#F18805"/><stop offset="0.2771" style="stop-color:#F28B09"/><stop offset="0.5367" style="stop-color:#F39214"/><stop offset="0.7887" style="stop-color:#F6A027"/><stop offset="1" style="stop-color:#FAAF3D"/></linearGradient><path class="st7" d="M85.6,462.2c0,0-20.8-153.2,64.9-170.1c15.7-3.1,31.9,0.4,39.6,14.4c2.4,4.4,6,9.4,7.4,16     c3.2,15,22.1,25.8,22.3,39.5c0.2,8.8-9.1,24.5-8.6,29.3c2.8,23.3,1.6,34.3-1.8,70.6L85.6,462.2z"/><g><path class="st5" d="M209.6,462.3C209.6,462.3,209.5,462.3,209.6,462.3c-0.2,0-0.4-0.2-0.4-0.4l0.4-4.3      c3-32.8,4.1-43.9,1.4-66.2c-0.3-2.2,1.5-6.6,3.5-11.6c2.4-6,5.2-12.9,5.1-17.7c-0.1-7.1-5.3-13.3-10.7-20      c-4.9-6-10.1-12.3-11.6-19.5c0-0.2,0.1-0.4,0.3-0.4c0.2,0,0.4,0.1,0.4,0.3c1.5,7.1,6.6,13.2,11.5,19.2      c5.5,6.7,10.7,13.1,10.9,20.4c0.1,4.9-2.7,11.9-5.1,18c-1.9,4.7-3.7,9.2-3.4,11.3c2.7,22.4,1.7,33.5-1.4,66.3l-0.4,4.3      C209.9,462.2,209.8,462.3,209.6,462.3z"/></g><path class="st8" d="M181.1,428.9l-97.3-11c-0.1,2.4-0.3,4.8-0.4,7.2c0.1,16.9,1.4,30.1,2,35c0,0,0,0,0,0.1     c0.1,0.5,0.1,1,0.2,1.3c0,0.1,0,0.1,0,0.2c0,0.1,0,0.2,0,0.3c0,0.1,0,0.1,0,0.2c0,0,0,0.1,0,0.1c0,0,0,0.1,0,0.1l70.4-0.1     L181.1,428.9z"/><polygon class="st9" points="153.8,302.6 168.7,324 174,331.7 174,325.3 172.5,254.6 153.9,254.6    "/><path class="st2" d="M140.6,300c6.6,9.6,13.3,19.5,22.3,27c3.2,2.7,14.5,12.1,16.9,4.2c1-3.2-0.4-6.8-1.5-9.8     c-1.1-3.2-2.9-6-5.9-7.8c-1.5-0.9-3.1-1.6-4.5-2.5c-3.5-2.3-5.6-6.1-7.3-9.9c-1.7-3.8-3.3-7.8-6.1-10.8     c-2.8-3.1-7.3-5.1-11.2-3.7c-3.8,1.4-6.1,6.1-4.7,9.9C139.1,297.8,139.8,298.9,140.6,300z"/><path class="st2" d="M177.4,301c-0.2-2.7-0.9-5.3-2-7.8c3.3-0.8,6.8-1.4,10.1-0.6c3.3,0.8,6.4,3.1,7.2,6.4     c0.9,4.1-1.8,7.9-3.2,11.9c-1.6,4.3-1.6,9-2.5,13.5c-0.3,1.4-3.6,12.8-7.5,9.7c-2.2-1.7-2.3-5.4-2.4-7.9     c-0.2-3.9-0.9-7.9-0.7-11.8C176.4,309.8,177.8,305.5,177.4,301z"/><g><path class="st10" d="M181.3,314.8c2,0.9,4,2.2,5.4,4c1.3,1.7,2,3.8,1.8,6c-0.3,2.4-1.9,4.4-3,6.4c-1.2,2.2-2.2,4.4-3,6.8      c-0.8,2.2-1.2,4.6-1.1,7c0.1,2.3,0.6,4.5,1.2,6.7c0.6,2.2,1.5,4.3,2.5,6.4c1,2,2.2,3.8,3.4,5.7c1.4,2.1,2.7,4.2,3.4,6.6      c0.7,2.4,0.7,5-0.5,7.3c-0.5,1.1-2.2,0.3-1.7-0.8c2-3.9-0.2-8.2-2.4-11.5c-1.2-1.8-2.4-3.6-3.4-5.5c-1-1.9-1.9-4-2.6-6      c-1.4-4.3-2.3-9-1.3-13.5c0.5-2.3,1.4-4.6,2.4-6.8c1-2.2,2.2-4.2,3.3-6.2c0.6-1,1-2.1,1-3.3c0-1.1-0.3-2.1-0.9-3      c-1.2-2-3.2-3.3-5.3-4.3C179.4,316,180.2,314.3,181.3,314.8L181.3,314.8z"/></g><g><path class="st10" d="M170.2,317.6c-0.8-0.2-1.5,0.3-1.9,0.9c-0.5,0.7-0.6,1.7-0.6,2.6c-0.1,2.2-0.3,4.6,0.4,6.7      c0.6,2.2,1.9,4.1,2.3,6.3c0.4,2.3-0.2,4.4-1.1,6.5c-0.8,2.1-1.8,4.1-2.9,6c-1.1,1.9-2.5,3.7-3.5,5.6c-1.9,3.7-0.8,7.9,0.3,11.7      c0.3,1.2,0.6,2.5,0.6,3.7c0,1.3-0.3,2.5-0.7,3.8c-0.8,2.5-1.7,5-2.7,7.3c-0.5,1.1-2.1,0.2-1.7-0.8c1-2.1,1.8-4.3,2.5-6.6      c0.3-1.1,0.6-2.2,0.7-3.3c0.1-1.1-0.1-2.2-0.4-3.2c-0.5-2.1-1.2-4.2-1.4-6.3c-0.2-2.1,0-4.2,0.7-6.2c0.8-2.1,2.3-3.9,3.5-5.8      c1.2-2,2.2-4,3.1-6.1c0.8-2,1.6-4.1,1.1-6.2c-0.5-2.3-1.8-4.2-2.4-6.5c-0.3-1.3-0.4-2.7-0.4-4.1c0-1.3,0-2.6,0.2-3.8      c0.2-1.1,0.6-2.3,1.4-3.1c0.9-0.8,2.1-1.3,3.3-1C171.8,316,171.4,317.9,170.2,317.6L170.2,317.6z"/></g><g><path class="st11" d="M130.6,315.1c0,0-73.3,61.5-63.6,97.2c4.9,17.8,17.3,17.4,28.5,12.6c12.1-5.2,21.6-15.1,26.9-27.2      l28.4-66.2c2.1-4.9,1.6-10.5-1.5-14.8C146.1,312.5,140.6,309.7,130.6,315.1z"/><path class="st9" d="M167.2,395.2c0,0-89.1-6.1-96.8,11.6c-3.2,7.3-0.7,13.5,3.4,18.4c6.1,7.2,15.8,8.4,24.7,10.5l50.4,5.2      c14.4,1.5,28.5-5.3,36-17.6C191.2,412.9,191.4,401,167.2,395.2z"/><path class="st9" d="M166.6,395.2c0,0,42-0.9,45.6,15.8c1.8,8.2-3.1,7.6-8.5,5c-10.9-5.4-22.8-8.7-35-9.6l-3.3-0.2L166.6,395.2z      "/><path class="st9" d="M171.3,405c0,0,27.8,0.1,29.3,13.7c0.9,8.1-3.1,12.8-6.4,15.2c-2.6,1.9-6.3,0.5-7-2.6      c-0.4-1.7-0.4-3.8,0.6-6.2c0.7-1.8-0.3-3.7-2.1-4.3c-4.7-1.4-12.7-4.2-17.9-8.8C159.9,405.2,171.3,405,171.3,405z"/><path class="st9" d="M160.9,411.1c0,0,27.8,0.1,29.3,13.7c0.9,8.1-3.1,12.8-6.4,15.2c-2.6,1.9-6.3,0.5-7-2.6      c-0.4-1.7-0.4-3.8,0.6-6.2c0.7-1.8-0.3-3.7-2.1-4.3c-4.7-1.4-12.7-4.2-17.9-8.8C149.5,411.3,160.9,411.1,160.9,411.1z"/><path class="st9" d="M150.8,417.1c0,0,27.8,0.1,29.3,13.7c0.9,8.1-3.1,12.8-6.4,15.2c-2.6,1.9-6.3,0.5-7-2.6      c-0.4-1.7-0.4-3.8,0.6-6.2c0.7-1.8-0.3-3.7-2.1-4.3c-4.7-1.4-12.7-4.2-17.9-8.8C139.4,417.3,150.8,417.1,150.8,417.1z"/><linearGradient gradientUnits="userSpaceOnUse" id="SVGID_5_" x1="99.9381" x2="119.8531" y1="459.7556" y2="357.1172"><stop offset="0" style="stop-color:#F18805"/><stop offset="0.2771" style="stop-color:#F28B09"/><stop offset="0.5367" style="stop-color:#F39214"/><stop offset="0.7887" style="stop-color:#F6A027"/><stop offset="1" style="stop-color:#FAAF3D"/></linearGradient><path class="st12" d="M153.5,393.7c0,0-12.3-0.7-27.5-0.4l25.9-60.9c2.1-4.9,1.3-12.3-1.8-16.6c-3.1-4.2-13.3-7-23.3-1.5      c0,0-70.8,63.8-61.1,99.4c1.3,4.7,3.2,8.1,5.5,10.4c0,0,0,0,0,0.1c6.1,7.2,14.7,9.9,25.8,12.6l42.2,4.3      C147.1,438.3,163.5,401.4,153.5,393.7z"/><g><path class="st13" d="M209.6,418.2c-1.5,0-3.5-0.6-5.9-1.8c-6.4-3.2-13.2-5.6-20.1-7.3c-0.2,0-0.3-0.2-0.3-0.5       c0-0.2,0.3-0.3,0.5-0.3c7,1.6,13.8,4.1,20.3,7.3c3.6,1.8,6.1,2.2,7.3,1.2c1.1-0.8,1.3-2.8,0.6-5.8       c-1.8-8.3-13.8-12.1-23.5-13.8c-10.9-1.9-21.7-1.7-21.8-1.7c-0.2,0-0.4-0.2-0.4-0.4c0-0.2,0.2-0.4,0.4-0.4       c0.1,0,10.9-0.2,21.9,1.7c14.4,2.5,22.5,7.4,24.1,14.4c0.7,3.3,0.4,5.5-0.9,6.5C211.2,417.9,210.5,418.2,209.6,418.2z"/></g><g><path class="st13" d="M171,447.2c-0.6,0-1.2-0.1-1.8-0.3c-1.5-0.6-2.6-1.8-3-3.4c0-0.2,0.1-0.4,0.3-0.4c0.2,0,0.4,0.1,0.4,0.3       c0.3,1.4,1.2,2.4,2.5,2.9c1.3,0.5,2.8,0.3,3.9-0.5c3.3-2.4,7.1-6.9,6.3-14.8c-0.2-1.8-0.9-3.4-2-4.9c-0.1-0.2-0.1-0.4,0.1-0.5       c0.2-0.1,0.4-0.1,0.5,0.1c1.2,1.6,2,3.3,2.2,5.3c0.9,8.3-3.1,13-6.6,15.5C173,446.9,172,447.2,171,447.2z"/></g><g><path class="st13" d="M191.4,435.2c-0.9,0-1.8-0.2-2.6-0.7c-0.2-0.1-0.2-0.3-0.1-0.5c0.1-0.2,0.3-0.2,0.5-0.1       c1.4,0.9,3.3,0.8,4.6-0.2c3.3-2.4,7.1-6.9,6.3-14.8c-0.2-1.8-0.9-3.4-2-4.9c-0.1-0.2-0.1-0.4,0.1-0.5c0.2-0.1,0.4-0.1,0.5,0.1       c1.2,1.6,2,3.3,2.2,5.3c0.9,8.3-3.1,13-6.6,15.5C193.5,434.9,192.5,435.2,191.4,435.2z"/></g><g><path class="st13" d="M181.1,441.4c-0.9,0-1.9-0.3-2.7-0.8c-0.2-0.1-0.2-0.3-0.1-0.5c0.1-0.2,0.3-0.2,0.5-0.1       c1.5,1,3.3,0.9,4.8-0.1c3.3-2.4,7.1-6.9,6.3-14.8c-0.2-1.8-0.9-3.4-2-4.9c-0.1-0.2-0.1-0.4,0.1-0.5c0.2-0.1,0.4-0.1,0.5,0.1       c1.2,1.6,2,3.3,2.2,5.3c0.9,8.3-3.1,13-6.6,15.5C183.2,441.1,182.2,441.4,181.1,441.4z"/></g><g><path class="st13" d="M151.3,441.5c-0.6,0-1,0-1,0c-0.2,0-0.4-0.2-0.4-0.4c0-0.2,0.2-0.4,0.4-0.4c0,0,0,0,0,0       c0.1,0,12.1,0.5,20-4.3c0.2-0.1,0.4-0.1,0.5,0.1c0.1,0.2,0.1,0.4-0.1,0.5C164,441.2,154.4,441.5,151.3,441.5z"/></g></g><g><path class="st14" d="M211.9,462.2h-55.5c-2.2,0-4-1.8-4-4v-0.3c0-2.2,1.8-4,4-4h55.5c2.1,0,3.9,1.7,3.9,3.9v0.5      C215.8,460.5,214,462.2,211.9,462.2z"/><path class="st15" d="M320.4,462.2H201.5c-3.8,0-6.5-3.8-5.1-7.4l27.8-72c0.8-2.1,2.8-3.5,5.1-3.5h118.9c3.8,0,6.5,3.8,5.1,7.4      l-27.8,72C324.7,460.8,322.6,462.2,320.4,462.2z"/><path class="st16" d="M283,420.8c0,4.5-3.6,8.1-8.1,8.1c-4.5,0-8.1-3.6-8.1-8.1c0-4.5,3.6-8.1,8.1-8.1      C279.3,412.7,283,416.3,283,420.8z"/><g><path class="st17" d="M185.3,459.9c0.2,0,0.4-0.2,0.4-0.4v-0.8c0-0.3,0.3-0.6,0.6-0.6h5.5c0.2,0,0.4-0.2,0.4-0.4       c0-0.2-0.2-0.4-0.4-0.4h-5.5c-0.8,0-1.4,0.6-1.4,1.4v0.8C184.9,459.7,185.1,459.9,185.3,459.9z"/></g><g><path class="st17" d="M176.7,459.7c0.2,0,0.4-0.2,0.4-0.4v-0.8c0-0.3,0.3-0.6,0.6-0.6h5.5c0.2,0,0.4-0.2,0.4-0.4       c0-0.2-0.2-0.4-0.4-0.4h-5.5c-0.8,0-1.4,0.6-1.4,1.4v0.8C176.3,459.5,176.5,459.7,176.7,459.7z"/></g></g><g><path class="st5" d="M191.9,238.7c1.5,0.1,2.5,1.5,3.3,2.6c0.8,1.1,1.5,2.3,2.1,3.6c1.2,2.6,1.9,5.4,2,8.2      c0.1,2.8-0.3,5.5-1.4,8.1c-1,2.5-2.4,4.8-4.2,6.7c-1.8,1.9-4,3.6-6.4,4.7c-0.3,0.1-0.6,0.3-0.9,0.4c-0.2,0.1-0.5-0.1-0.6-0.3      c-0.1-0.3,0.1-0.5,0.3-0.6c2.3-1,4.4-2.4,6.2-4.2c1.8-1.8,3.3-3.8,4.3-6.1c1.1-2.4,1.7-4.9,1.7-7.5c0.1-2.7-0.4-5.4-1.4-7.9      c-0.5-1.2-1.1-2.4-1.8-3.6c-0.4-0.6-0.7-1.1-1.1-1.6c-0.4-0.5-0.8-1.1-1.4-1.4c-0.3-0.2-0.5-0.3-0.8-0.3      C191.3,239.6,191.3,238.7,191.9,238.7L191.9,238.7z"/></g><path class="st8" d="M173.3,300.5c-9-4.4-16-21.6-19.5-28.9l0-14.1h18.6L173.3,300.5z"/><path class="st9" d="M186.3,230.2c0,0,22.6,37,3.7,57.1c-18.9,20.1-41.6-21.7-41.6-21.7S147.6,213.5,186.3,230.2z"/><path class="st5" d="M188.3,277.3c-2.2,0.8-6.2,1.4-10.2-3c-0.3-0.4-1-0.1-0.9,0.4c0.9,4.4,3.9,14.2,11.7,3.3     C189.2,277.6,188.8,277.1,188.3,277.3z"/><path class="st5" d="M142.4,241.3c0.3-0.6,0.7-1.1,1.1-1.7c1.1-1.5,2.4-2.9,3.7-4.2c2.7-2.6,5.8-4.8,9.2-6.4     c7.1-3.5,15.2-4.9,23.1-5c4.2,0,8.6,0.3,12.2,2.4c3.8,2.2,6.5,7,7.6,11.3c1,3.9,1.5,8.1,0.1,11.9c-0.5,1.3-1.5,2.7-2.8,2.7     c-1.4,0-2.3-1.5-3-2.8c-1.6-3.1-3.6-5.9-5.9-8.6c-0.2-0.3-0.5-0.6-0.9-0.6c-0.4-0.1-0.9,0.3-1.2,0.6c-4.6,4.1-10.3,7.7-16.5,7.6     c-0.5,0-0.9,0-1.3,0.2c-0.4,0.3-0.6,0.8-0.7,1.2c-0.6,1.8-1.7,3.4-3,4.7c-0.7,0.7-1.2,1.1-1.7,1.9c-0.6,1-1.2,1.9-1.8,2.9     c-1.7,2.9-3.1,6.1-3.7,9.5c-0.2,1.3-0.3,2.6-0.2,3.9c0.3,5.8,3.6,10.9,5.6,16.4c3.3,9.4,2.5,19.6,1.7,29.5     c-5.5-2.3-11.7-2.9-17.5-1.7c-1.9,0.4-3.8,0.9-5.7,0.9c-4-0.2-7.7-3.1-11.5-2.1c-2.4,0.7-4.6,2.8-7,2c9.1-12,15-26.5,16.9-41.5     c0.2-1.4,0.3-2.9,0.2-4.3c-0.2-3.3-1.6-6.5-2.5-9.6c-0.5-1.6-0.9-3.1-1-4.8c0-0.8,0-1.6,0.1-2.4c0-0.6-0.1-1.1-0.1-1.7     c0-0.9,0.4-1.8,0.7-2.7c0.5-1.5,1.1-3.1,2-4.3c0.6-0.8,1.3-1.4,2-2.1C141.2,243.5,141.7,242.4,142.4,241.3z"/><ellipse class="st9" cx="159.4" cy="261.6" rx="6.5" ry="8.8" transform="matrix(0.866 -0.5 0.5 0.866 -109.4562 114.7317)"/><g><path class="st5" d="M157,267c-0.1,0-0.2,0-0.2-0.1c-0.9-0.7-1.6-1.6-2.2-2.6c-1-1.7-1.4-3.5-1.2-5.2c0.2-1.7,1-3.1,2.3-3.9      c1.8-1,4.1-0.7,6.1,0.8c0.2,0.1,0.2,0.4,0.1,0.5c-0.1,0.2-0.4,0.2-0.5,0.1c-1.8-1.3-3.8-1.6-5.3-0.8c-1.1,0.6-1.8,1.8-2,3.3      c-0.2,1.5,0.2,3.2,1.1,4.8c0.5,0.9,1.2,1.7,2,2.4c0.2,0.1,0.2,0.4,0.1,0.5C157.2,267,157.1,267,157,267z"/></g><linearGradient gradientUnits="userSpaceOnUse" id="SVGID_6_" x1="127.101" x2="201.1777" y1="241.0252" y2="241.0252"><stop offset="0" style="stop-color:#F18805"/><stop offset="0.2771" style="stop-color:#F28B09"/><stop offset="0.5367" style="stop-color:#F39214"/><stop offset="0.7887" style="stop-color:#F6A027"/><stop offset="1" style="stop-color:#FAAF3D"/></linearGradient><path class="st18" d="M151.3,256.8c-0.5,0.5-1,0.9-1.5,1.4c-1.7,1.6-3.4,3.2-5.2,4.8c-2.3,2.1-4.6,4.4-5.5,7.3     c-2.1-1.5-4.2-3.1-5.6-5.3c-1.4-2.2-2-5.1-0.7-7.4c0.3-0.5,0.6-0.9,0.6-1.5c0-1.3-1.8-1.6-3-2c-2.3-0.8-3.7-3.5-3.1-5.8     c0.7-2.7,3.8-4.9,3.1-7.6c-0.2-0.7-0.7-1.2-1-1.9c-0.3-0.7-0.7-1.3-0.9-2.1c-0.4-1.5-0.3-3,0.1-4.5c1.2-4.7,5-8.3,8.7-11.4     c4.2-3.6,8.7-7.1,14-8.5c2.6-0.7,5.2-0.8,7.9-0.8c1.7,0,3.4,0.1,5.1,0.2c0.9,0.1,1.7,0.1,2.6,0.2c0.5,0.1,1,0.4,1.5,0.4     c0.5,0.1,1,0.2,1.5,0.3c4.4,0.8,8.7,2.3,12.7,4.2c4,2,7.7,4.5,11,7.4c0.4,0.4,0.8,0.7,1.2,1.1c1.6,1.5,3,3.2,4.2,5.1     c0.6,1,1,1.9,1.4,3c0.1,0.4,0.4,0.7,0.5,1.1c0.3,0.9,0.3,2,0.3,3c0.1,1.5,0.1,3,0,4.5c0,0.7-0.1,1.4-0.4,2     c-0.2,0.3-0.4,0.6-0.6,0.8c-0.2,0.2-0.3,0.4-0.5,0.5c-0.9,0.9-2,0.7-3.1,0.2c-1.3-0.5-2.7-1-4.1-1.3c-0.6-0.1-1.2-0.2-1.8-0.5     c-0.6-0.3-1.3-0.4-1.9-0.7c-1.1-0.4-1.9-0.7-3.1-0.7c-1.3,0.1-2.7-0.2-4-0.3c-1.4-0.1-2.9-0.1-4.3,0.1c-5.5,0.4-11,2.1-15.7,4.9     c-3.6,2.1-7.2,5-9.6,8.5C151.8,256.3,151.5,256.6,151.3,256.8z"/><path class="st19" d="M155.9,238.4c-1.3-0.1-2.6,0-3.8,0.2c-1.3,0.2-2.5,0.5-3.7,1c-1.2,0.4-2.4,1-3.6,1.6     c-1.1,0.6-2.2,1.4-3.2,2.2c-2,1.6-3.8,3.6-5.2,5.8c-1.4,2.2-2.4,4.6-3,7.1c1.1-2.3,2.3-4.6,3.7-6.6c0.2-0.3,0.4-0.5,0.6-0.8     c0.2-0.2,0.4-0.5,0.6-0.7c0.4-0.5,0.8-1,1.2-1.4c0.4-0.5,0.9-0.9,1.3-1.3c0.5-0.4,0.9-0.8,1.4-1.2c1.9-1.6,4.1-2.8,6.4-3.8     c1.2-0.5,2.3-0.9,3.6-1.2C153.4,238.8,154.7,238.6,155.9,238.4z"/><path class="st19" d="M193.6,227.8c-1.6-1.1-3.3-1.8-5.1-2.4c-1.8-0.6-3.7-1-5.6-1.2c-0.9-0.1-1.9-0.1-2.9-0.1     c-0.9,0.1-1.9,0.1-2.8,0.3c-1.9,0.3-3.7,1-5.3,1.9c1.8-0.5,3.6-0.9,5.4-1.1c0.9-0.1,1.8-0.1,2.7-0.1c0.9,0,1.8,0,2.7,0.1     c0.9,0.1,1.8,0.2,2.7,0.4c0.9,0.1,1.8,0.3,2.7,0.6C190.1,226.5,191.8,227.1,193.6,227.8z"/><path class="st19" d="M146,230.8c-1.8-0.1-3.6,0.2-5.3,0.7c-0.9,0.3-1.7,0.6-2.5,1.1c-0.8,0.4-1.5,0.9-2.3,1.5     c-1.4,1.1-2.6,2.5-3.6,4c-0.9,1.5-1.6,3.2-2,4.9c0.8-1.6,1.6-3.1,2.7-4.5c0.1-0.2,0.3-0.3,0.4-0.5c0.1-0.2,0.3-0.3,0.4-0.5     c0.3-0.3,0.6-0.6,0.9-0.9c0.3-0.3,0.6-0.6,0.9-0.9c0.3-0.3,0.6-0.6,1-0.8c1.3-1.1,2.8-1.9,4.4-2.6     C142.6,231.6,144.3,231.1,146,230.8z"/><g><path class="st19" d="M196.7,236.9c0.1,0.3,0.1,0.5,0.1,0.8c0,0.3,0,0.5,0.1,0.7c0,0.5,0,1,0,1.5c0,0.5-0.1,1-0.1,1.5      c0,0.3,0,0.5,0,0.8c0,0.3,0,0.5,0,0.8c0.2-0.2,0.3-0.5,0.4-0.7c0.1-0.2,0.2-0.5,0.3-0.7c0.2-0.5,0.3-1.1,0.3-1.6      c0-0.6,0-1.1-0.2-1.7c-0.1-0.3-0.2-0.5-0.3-0.8C197.1,237.3,196.9,237,196.7,236.9z"/><path class="st19" d="M190.6,235.6c0.1,0.3,0.1,0.5,0.1,0.8c0,0.3,0,0.5,0.1,0.7c0,0.5,0,1,0,1.5c0,0.5-0.1,1-0.1,1.5      c0,0.3,0,0.5,0,0.8c0,0.3,0,0.5,0,0.8c0.2-0.2,0.3-0.5,0.4-0.7c0.1-0.2,0.2-0.5,0.3-0.7c0.2-0.5,0.3-1.1,0.3-1.6      c0-0.6,0-1.1-0.2-1.7c-0.1-0.3-0.2-0.5-0.3-0.8C191,236,190.8,235.8,190.6,235.6z"/><path class="st19" d="M183.4,235.4c0.1,0.3,0.1,0.5,0.1,0.8c0,0.3,0,0.5,0.1,0.7c0,0.5,0,1,0,1.5c0,0.5-0.1,1-0.1,1.5      c0,0.3,0,0.5,0,0.8c0,0.3,0,0.5,0,0.8c0.2-0.2,0.3-0.5,0.4-0.7c0.1-0.2,0.2-0.5,0.3-0.7c0.2-0.5,0.3-1.1,0.3-1.6      c0-0.6,0-1.1-0.2-1.7c-0.1-0.3-0.2-0.5-0.3-0.8C183.8,235.7,183.7,235.5,183.4,235.4z"/><path class="st19" d="M169.9,236.5c-0.2,0.2-0.4,0.4-0.5,0.7c-0.1,0.3-0.2,0.5-0.3,0.8c-0.1,0.6-0.1,1.1,0,1.7      c0.1,0.5,0.3,1.1,0.5,1.6c0.1,0.2,0.2,0.5,0.4,0.7c0.2,0.2,0.3,0.4,0.5,0.6c0-0.3,0-0.5-0.1-0.8c0-0.3-0.1-0.5-0.1-0.8      c-0.1-0.5-0.2-1-0.2-1.5c-0.1-0.5-0.1-1-0.2-1.5c0-0.2,0-0.5,0-0.7C169.8,237.1,169.8,236.8,169.9,236.5z"/><path class="st19" d="M162.6,238.3c-0.2,0.2-0.3,0.5-0.4,0.7c-0.1,0.3-0.1,0.6-0.1,0.8c0,0.6,0.1,1.1,0.2,1.7      c0.2,0.5,0.4,1,0.7,1.5c0.2,0.2,0.3,0.4,0.5,0.6c0.2,0.2,0.4,0.4,0.6,0.6c0-0.3-0.1-0.5-0.2-0.8c-0.1-0.3-0.2-0.5-0.2-0.7      c-0.2-0.5-0.3-1-0.5-1.4c-0.2-0.5-0.3-0.9-0.4-1.4c-0.1-0.2-0.1-0.5-0.1-0.7C162.6,238.8,162.6,238.6,162.6,238.3z"/><path class="st19" d="M156.7,241.8c-0.2,0.2-0.2,0.5-0.3,0.8c-0.1,0.3-0.1,0.6,0,0.8c0,0.6,0.2,1.1,0.4,1.6      c0.2,0.5,0.5,1,0.9,1.4c0.2,0.2,0.4,0.4,0.6,0.6c0.2,0.2,0.4,0.3,0.7,0.5c-0.1-0.3-0.2-0.5-0.3-0.8c-0.1-0.2-0.2-0.5-0.3-0.7      c-0.2-0.5-0.4-0.9-0.6-1.4c-0.2-0.5-0.4-0.9-0.6-1.4c-0.1-0.2-0.2-0.5-0.2-0.7C156.8,242.3,156.8,242.1,156.7,241.8z"/><path class="st19" d="M151.9,245.5c-0.1,0.3-0.2,0.5-0.2,0.8c0,0.3,0,0.6,0.1,0.8c0.1,0.6,0.4,1.1,0.7,1.5      c0.3,0.5,0.7,0.9,1.1,1.2c0.2,0.2,0.4,0.3,0.7,0.5c0.2,0.1,0.5,0.3,0.7,0.4c-0.1-0.3-0.3-0.5-0.4-0.7c-0.1-0.2-0.3-0.4-0.4-0.7      c-0.3-0.4-0.6-0.8-0.8-1.3c-0.3-0.4-0.5-0.8-0.8-1.3c-0.1-0.2-0.2-0.4-0.3-0.7C152,246.1,151.9,245.8,151.9,245.5z"/><path class="st19" d="M147.1,250c-0.1,0.3-0.1,0.6,0,0.8c0,0.3,0.1,0.6,0.2,0.8c0.2,0.5,0.5,1,0.9,1.4c0.4,0.4,0.8,0.8,1.3,1      c0.2,0.1,0.5,0.3,0.7,0.4c0.3,0.1,0.5,0.2,0.8,0.3c-0.2-0.2-0.3-0.4-0.5-0.6c-0.2-0.2-0.4-0.4-0.5-0.6c-0.3-0.4-0.7-0.7-1-1.1      c-0.3-0.4-0.7-0.7-1-1.1c-0.2-0.2-0.3-0.4-0.4-0.6C147.4,250.5,147.2,250.3,147.1,250z"/><path class="st19" d="M143.3,254.1c-0.1,0.3-0.1,0.6,0,0.8c0,0.3,0.1,0.6,0.2,0.8c0.2,0.5,0.5,1,0.9,1.4c0.4,0.4,0.8,0.8,1.3,1      c0.2,0.1,0.5,0.3,0.7,0.4c0.3,0.1,0.5,0.2,0.8,0.3c-0.2-0.2-0.3-0.4-0.5-0.6c-0.2-0.2-0.4-0.4-0.5-0.6c-0.3-0.4-0.7-0.7-1-1.1      c-0.3-0.4-0.7-0.7-1-1.1c-0.2-0.2-0.3-0.4-0.4-0.6C143.5,254.6,143.4,254.4,143.3,254.1z"/><path class="st19" d="M139.2,258.3c-0.1,0.3-0.1,0.6,0,0.8c0,0.3,0.1,0.6,0.2,0.8c0.2,0.5,0.5,1,0.9,1.4c0.4,0.4,0.8,0.8,1.3,1      c0.2,0.1,0.5,0.3,0.7,0.4c0.3,0.1,0.5,0.2,0.8,0.3c-0.2-0.2-0.3-0.4-0.5-0.6c-0.2-0.2-0.4-0.4-0.5-0.6c-0.3-0.4-0.7-0.7-1-1.1      c-0.3-0.4-0.7-0.7-1-1.1c-0.2-0.2-0.3-0.4-0.4-0.6C139.5,258.8,139.3,258.5,139.2,258.3z"/><path class="st19" d="M135.3,262.5c-0.1,0.3-0.1,0.6,0,0.8c0,0.3,0.1,0.6,0.2,0.8c0.2,0.5,0.5,1,0.9,1.4c0.4,0.4,0.8,0.8,1.3,1      c0.2,0.1,0.5,0.3,0.7,0.4c0.3,0.1,0.5,0.2,0.8,0.3c-0.2-0.2-0.3-0.4-0.5-0.6c-0.2-0.2-0.4-0.4-0.5-0.6c-0.3-0.4-0.7-0.7-1-1.1      c-0.3-0.4-0.7-0.7-1-1.1c-0.2-0.2-0.3-0.4-0.4-0.6C135.6,262.9,135.5,262.7,135.3,262.5z"/><path class="st19" d="M177.2,236c-0.2,0.5-0.3,0.9-0.4,1.4c-0.1,0.5-0.1,0.9-0.1,1.4c0,0.5,0,0.9,0.1,1.4      c0.1,0.5,0.2,0.9,0.4,1.4c0.2-0.5,0.3-0.9,0.4-1.4c0.1-0.5,0.1-0.9,0.1-1.4c0-0.5,0-0.9-0.1-1.4      C177.5,236.9,177.4,236.4,177.2,236z"/></g><rect class="st10" height="15.7" transform="matrix(-1 -1.224647e-16 1.224647e-16 -1 317.5406 551.179)" width="2.3" x="157.6" y="267.7"/><g><path class="st5" d="M188.1,272.4H184c-0.2,0-0.4-0.2-0.4-0.4c0-0.2,0.2-0.4,0.4-0.4h4.1c0.3,0,0.6-0.2,0.7-0.4      c0.1-0.3,0.1-0.6-0.1-0.8c-3-4.1-2.1-8.2-2.1-8.4c0-0.2,0.2-0.3,0.4-0.3c0.2,0,0.3,0.2,0.3,0.4c0,0-0.9,4,2,7.7      c0.4,0.5,0.4,1.1,0.1,1.6C189.2,272,188.7,272.4,188.1,272.4z"/></g><g><path class="st5" d="M173.6,257.4c-0.1,0-0.2-0.1-0.3-0.2c-0.1-0.2-0.1-0.4,0.1-0.5c0.2-0.1,4-2.6,9-1.4c0.2,0,0.3,0.2,0.3,0.5      c0,0.2-0.2,0.3-0.5,0.3c-4.7-1.1-8.4,1.3-8.4,1.3C173.7,257.4,173.6,257.4,173.6,257.4z"/></g><g><path class="st5" d="M197.2,257.4c-0.1,0-0.1,0-0.2-0.1c0,0-3.7-2.4-8.4-1.3c-0.2,0-0.4-0.1-0.5-0.3c0-0.2,0.1-0.4,0.3-0.5      c5-1.2,8.9,1.3,9,1.4c0.2,0.1,0.2,0.3,0.1,0.5C197.5,257.3,197.4,257.4,197.2,257.4z"/></g><path class="st5" d="M179.7,262.5c0,0.8-0.6,1.4-1.4,1.4c-0.8,0-1.4-0.6-1.4-1.4c0-0.8,0.6-1.4,1.4-1.4     C179.1,261.1,179.7,261.7,179.7,262.5z"/><path class="st5" d="M194.7,262.5c0,0.8-0.6,1.4-1.4,1.4s-1.4-0.6-1.4-1.4c0-0.8,0.6-1.4,1.4-1.4S194.7,261.7,194.7,262.5z"/><path class="st20" d="M175,272.9c0,2.7-2.2,4.8-4.8,4.8c-2.7,0-4.8-2.2-4.8-4.8c0-2.7,2.2-4.8,4.8-4.8     C172.8,268,175,270.2,175,272.9z"/><path class="st20" d="M197.2,268c-2.7,0-4.8,2.2-4.8,4.8c0,2.2,1.5,4,3.5,4.6c1-3,1.5-6.2,1.6-9.4     C197.4,268.1,197.3,268,197.2,268z"/><path class="st21" d="M178.6,277.3c-0.2,0-0.4,0-0.7,0.1c0.5,1.7,1.3,3.4,2.3,4.5c0.6-0.5,0.9-1.2,0.9-2     C181.2,278.5,180,277.3,178.6,277.3z"/><path class="st21" d="M180.7,280.1c-0.5,0-1,0.2-1.4,0.5c0.8,1.4,1.9,2.4,3.4,2.3c0.1-0.2,0.1-0.5,0.1-0.7     C182.9,281.1,181.9,280.1,180.7,280.1z"/><g><path class="st5" d="M122.9,401c0,0-0.1,0-0.1,0c-0.2-0.1-0.3-0.3-0.2-0.5l25.3-59.6c0.1-0.2,0.3-0.3,0.5-0.2      c0.2,0.1,0.3,0.3,0.2,0.5l-25.3,59.6C123.2,400.9,123,401,122.9,401z"/></g><g><path class="st5" d="M150.3,393.9C150.3,393.9,150.3,393.9,150.3,393.9l-24.3-0.3c-0.2,0-0.4-0.2-0.4-0.4c0-0.2,0.2-0.4,0.4-0.4      c0,0,0,0,0,0l24.3,0.3c0.2,0,0.4,0.2,0.4,0.4C150.6,393.7,150.5,393.9,150.3,393.9z"/></g></g><g><g id="XMLID_35_"><path class="st5" d="M419.9,259.7h-137c-4.5,0-7.1-4.1-5.5-8.5l15.5-42c1.3-3.6,5-6.2,8.6-6.2h137      c4.5,0,7.1,4.1,5.5,8.5l-15.5,42C427.2,257.1,423.5,259.7,419.9,259.7z" id="XMLID_66_"/><g id="XMLID_43_"><path class="st10" d="M323.8,215.6l-0.9,0c-1.3,0-2.2,0.6-2.7,1.8l-3.6,9.6c-0.6,1.6-1.6,2.8-3,3.6       c0.9,0.7,1,1.9,0.4,3.5l-3.7,10c-0.4,1,0.4,1.5,2.4,1.5l-2.1,5.6H308c-4.6,0-6.1-2.2-4.4-6.6l3.5-9.4c0.5-1.3,0.3-1.9-0.4-1.9       h-2.1l2.1-5.6h2.1c0.7,0,1.3-0.6,1.8-1.9l3.4-9.2c1.6-4.4,4.7-6.6,9.3-6.6h2.5L323.8,215.6z" id="XMLID_64_"/><path class="st10" d="M319.2,244c-0.5-0.8-0.5-1.7-0.1-2.9c0.4-1.1,1.2-2.1,2.2-2.9c1.1-0.8,2.2-1.2,3.3-1.2       c1.1,0,1.9,0.4,2.4,1.2c0.5,0.8,0.5,1.7,0.1,2.9c-0.4,1.1-1.2,2.1-2.2,2.9c-1.1,0.8-2.2,1.2-3.3,1.2       C320.5,245.2,319.7,244.8,319.2,244z" id="XMLID_61_"/><path class="st10" d="M332.5,244c-0.5-0.8-0.5-1.7-0.1-2.9c0.4-1.1,1.2-2.1,2.2-2.9c1.1-0.8,2.2-1.2,3.3-1.2       c1.1,0,1.9,0.4,2.4,1.2c0.5,0.8,0.5,1.7,0.1,2.9c-0.4,1.1-1.2,2.1-2.2,2.9c-1.1,0.8-2.2,1.2-3.3,1.2       C333.8,245.2,333,244.8,332.5,244z" id="XMLID_59_"/><path class="st10" d="M345.7,244c-0.5-0.8-0.5-1.7-0.1-2.9c0.4-1.1,1.2-2.1,2.2-2.9c1.1-0.8,2.2-1.2,3.3-1.2       c1.1,0,1.9,0.4,2.4,1.2c0.5,0.8,0.5,1.7,0.1,2.9c-0.4,1.1-1.2,2.1-2.2,2.9c-1.1,0.8-2.2,1.2-3.3,1.2       C347,245.2,346.2,244.8,345.7,244z" id="XMLID_57_"/><path class="st10" d="M358.9,244c-0.5-0.8-0.5-1.7-0.1-2.9c0.4-1.1,1.2-2.1,2.2-2.9c1.1-0.8,2.2-1.2,3.3-1.2       c1.1,0,1.9,0.4,2.4,1.2c0.5,0.8,0.5,1.7,0.1,2.9c-0.4,1.1-1.2,2.1-2.2,2.9c-1.1,0.8-2.2,1.2-3.3,1.2       C360.2,245.2,359.4,244.8,358.9,244z" id="XMLID_55_"/><path class="st10" d="M372.2,244c-0.5-0.8-0.5-1.7-0.1-2.9c0.4-1.1,1.2-2.1,2.2-2.9c1.1-0.8,2.2-1.2,3.3-1.2       c1.1,0,1.9,0.4,2.4,1.2c0.5,0.8,0.5,1.7,0.1,2.9c-0.4,1.1-1.2,2.1-2.2,2.9c-1.1,0.8-2.2,1.2-3.3,1.2       C373.5,245.2,372.7,244.8,372.2,244z" id="XMLID_53_"/><path class="st10" d="M385.4,244c-0.5-0.8-0.5-1.7-0.1-2.9c0.4-1.1,1.2-2.1,2.2-2.9c1.1-0.8,2.2-1.2,3.3-1.2       c1.1,0,1.9,0.4,2.4,1.2c0.5,0.8,0.5,1.7,0.1,2.9c-0.4,1.1-1.2,2.1-2.2,2.9c-1.1,0.8-2.2,1.2-3.3,1.2       C386.7,245.2,385.9,244.8,385.4,244z" id="XMLID_51_"/><path class="st10" d="M396.6,245.7l0.9,0c1.3,0,2.2-0.6,2.7-1.8l3.6-9.6c0.6-1.6,1.6-2.8,3-3.6       c-0.9-0.7-1-1.9-0.4-3.5l3.7-10c0.4-1-0.4-1.5-2.4-1.5l2.1-5.6h2.5c4.6,0,6.1,2.2,4.4,6.6l-3.5,9.4c-0.5,1.3-0.4,1.9,0.4,1.9       h2.1l-2.1,5.6h-2.1c-0.7,0-1.3,0.6-1.8,1.9l-3.4,9.2c-1.6,4.4-4.7,6.6-9.3,6.6h-2.5L396.6,245.7z" id="XMLID_44_"/></g></g><g><path class="st5" d="M386.4,284.4h-119c-1.1,0-1.9-1.1-1.5-2.2l2.4-6.7c0.2-0.6,0.9-1.1,1.5-1.1h119c1.1,0,1.9,1.1,1.5,2.2      l-2.4,6.7C387.7,284,387.1,284.4,386.4,284.4z"/><path class="st21" d="M328.6,303.2h-52.6c-1.1,0-1.9-1.1-1.5-2.2l2.4-6.7c0.2-0.6,0.9-1.1,1.5-1.1H331c1.1,0,1.9,1.1,1.5,2.2      l-2.4,6.7C329.9,302.8,329.2,303.2,328.6,303.2z"/><path class="st22" d="M287.3,322h-33.5c-1.1,0-1.9-1.1-1.5-2.2l2.4-6.7c0.2-0.6,0.9-1.1,1.5-1.1h33.5c1.1,0,1.9,1.1,1.5,2.2      l-2.4,6.7C288.6,321.6,287.9,322,287.3,322z"/><path class="st5" d="M305.4,322h93.2c0.7,0,1.3-0.4,1.5-1.1l2.4-6.7c0.4-1.1-0.4-2.2-1.5-2.2h-93.2c-0.7,0-1.3,0.4-1.5,1.1      l-2.4,6.7C303.5,320.9,304.3,322,305.4,322z"/><path class="st21" d="M309.1,340.8h-46.9c-1.1,0-1.9-1.1-1.5-2.2l2.4-6.7c0.2-0.6,0.9-1.1,1.5-1.1h46.9c1.1,0,1.9,1.1,1.5,2.2      l-2.4,6.7C310.4,340.4,309.8,340.8,309.1,340.8z"/><path class="st22" d="M322.4,340.8h30.4c0.7,0,1.3-0.4,1.5-1.1l2.4-6.7c0.4-1.1-0.4-2.2-1.5-2.2h-30.4c-0.7,0-1.3,0.4-1.5,1.1      l-2.4,6.7C320.5,339.7,321.2,340.8,322.4,340.8z"/><path class="st22" d="M288.2,359.7H240c-1.1,0-1.9-1.1-1.5-2.2l2.4-6.7c0.2-0.6,0.9-1.1,1.5-1.1h48.2c1.1,0,1.9,1.1,1.5,2.2      l-2.4,6.7C289.5,359.2,288.9,359.7,288.2,359.7z"/><path class="st5" d="M300,359.7h114.8c0.7,0,1.3-0.4,1.5-1.1l2.4-6.7c0.4-1.1-0.4-2.2-1.5-2.2H302.5c-0.7,0-1.3,0.4-1.5,1.1      l-2.4,6.7C298.1,358.5,298.9,359.7,300,359.7z"/><path class="st22" d="M341,303.2h15.6c0.7,0,1.3-0.4,1.5-1.1l2.4-6.7c0.4-1.1-0.4-2.2-1.5-2.2h-15.6c-0.7,0-1.3,0.4-1.5,1.1      l-2.4,6.7C339,302.1,339.8,303.2,341,303.2z"/><path class="st5" d="M399.8,284.4h28.4c0.7,0,1.3-0.4,1.5-1.1l2.4-6.7c0.4-1.1-0.4-2.2-1.5-2.2h-28.4c-0.7,0-1.3,0.4-1.5,1.1      l-2.4,6.7C397.9,283.3,398.7,284.4,399.8,284.4z"/></g></g><g><path class="st22" d="M69.7,461.9h19.1c6.6,0,11.9-5.3,11.9-11.9V416H57.8V450C57.8,456.6,63.1,461.9,69.7,461.9z     " id="XMLID_34_"/><path class="st23" d="M90.7,416V450c0,6.6-5.3,11.9-11.9,11.9h10c6.6,0,11.9-5.3,11.9-11.9V416H90.7z"/><g><path class="st22" d="M59.5,442.5h-5.2c-5.3,0-9.7-4.3-9.7-9.7v-1.3c0-5.3,4.3-9.7,9.7-9.7h5.2c1.4,0,2.5,1.1,2.5,2.5      c0,1.4-1.1,2.5-2.5,2.5h-5.2c-2.6,0-4.7,2.1-4.7,4.7v1.3c0,2.6,2.1,4.7,4.7,4.7h5.2c1.4,0,2.5,1.1,2.5,2.5      S60.9,442.5,59.5,442.5z"/></g></g><g id="XMLID_30_"><path class="st5" d="M452.2,449.5c1.5,0.3,6.1,3.8,7.2,0.9c0,0,2.5-6.2,2.5-6.2c0.4-1-0.1-2.1-1-2.5l-3.7-1.5     c-1.4-0.6-1.4-3.6,0-4.3c1.3-0.8,5.9-1.5,4.8-4.1c-1-1.5-2.1-8.5-5-7.1c-2.2,0.8-4.7,3-6.4,0.3c-1.4-1,0.9-4.3,1.2-5.6     c0.4-1-0.1-2.1-1-2.5l-6.1-2.5c-1-0.4-2.1,0.1-2.5,1.1c-0.7,1.2-1.3,5-3.1,4.8c-3.1,0.8-3.3-2.6-4.3-4.7c-1.1-3-6.8,1.3-8.5,1.6     c-2.6,1.1,0.1,4.7,0.5,6.3c0.5,1.5-1.6,3.6-3,3.1c0,0-3.8-1.5-3.8-1.5c-1-0.4-2.1,0.1-2.5,1.1l-2.5,6.2c-1.1,2.6,3.4,3.2,4.7,4     c1.1,0.4,0.9,1.7,1,2.8c0,3-7,2-5.7,5.7c0,0,2.5,6.1,2.5,6.1c1,2.6,4.6-0.1,6.2-0.6c1.4-0.5,3.6,1.5,3,3     c-0.4,1.6-3.1,5.4-0.5,6.3c0,0,6.1,2.5,6.1,2.5c2.5,1.1,3.2-3.3,4-4.9c0.7-1.4,3.6-1.4,4.3-0.1c0.8,1.4,1.5,6,4,4.8     c0,0,6.1-2.6,6.1-2.6c1-0.4,1.4-1.5,1-2.5C450.4,452.9,448.7,452.7,452.2,449.5z M430.7,433.2c6.6-10.3,22.1-0.6,15.6,10.1     C439.8,453.6,424.2,443.8,430.7,433.2z" id="XMLID_31_"/></g><g><path class="st22" d="M359.7,461.3h-33.9c-9.4,0-17-7.6-17-17v-33.9c0-9.4,7.6-17,17-17h33.9c9.4,0,17,7.6,17,17v33.9     C376.7,453.7,369.1,461.3,359.7,461.3z"/><path class="st10" d="M367,432.8c0-5.2-4.2-9.5-9.5-9.5c-0.2,0-0.5,0-0.7,0c-0.8-7.3-6.9-12.9-14.4-12.9     c-7.4,0-13.5,5.6-14.4,12.7c-5.2,0.3-9.3,4.5-9.6,9.6h0c0,0.1,0,0.2,0,0.3c0,0.1,0,0.2,0,0.3c0,3.2,1.5,6,3.8,7.9     c2.1,1.9,4.8,3.1,7.8,3.1h25.4c6.1,0,11-4.7,11.5-10.6C367,433.5,367,433.2,367,432.8z"/></g><g><g id="XMLID_13_"><g id="XMLID_23_"><linearGradient gradientUnits="userSpaceOnUse" id="XMLID_2_" x1="51.7336" x2="101.1379" y1="280.9542" y2="170.6564"><stop offset="0" style="stop-color:#A00E11"/><stop offset="6.770599e-02" style="stop-color:#B01A14"/><stop offset="0.2138" style="stop-color:#CD3019"/><stop offset="0.3704" style="stop-color:#E3411D"/><stop offset="0.5404" style="stop-color:#F34E20"/><stop offset="0.7335" style="stop-color:#FC5521"/><stop offset="1" style="stop-color:#FF5722"/></linearGradient><path class="st24" d="M120,236.3l-2.8-15.3c2.4-5.5,3.7-11.5,3.5-18c-0.9-21-18.1-37.9-39.1-38.4       c-22.9-0.5-41.6,18.3-41,41.2c0.6,20.6,17,37.6,37.6,38.8c8.7,0.5,16.9-1.8,23.7-6.1l13.4,2.5       C118.1,241.6,120.6,239.2,120,236.3z" id="XMLID_25_"/></g></g><g><g><path class="st10" d="M67.3,205.3l5.4,2.2c0.1,0,0.2,0.1,0.3,0.3c0.1,0.1,0.1,0.3,0.1,0.4v3.5c0,0.3-0.1,0.5-0.3,0.6       c-0.2,0.1-0.4,0.2-0.7,0.1L60,207.4c-0.1,0-0.2-0.1-0.3-0.3c-0.1-0.1-0.1-0.3-0.1-0.4v-2.8c0-0.1,0-0.3,0.1-0.4       c0.1-0.1,0.2-0.2,0.3-0.3l12.2-4.9c0.3-0.1,0.5-0.1,0.7,0.1c0.2,0.1,0.3,0.3,0.3,0.6v3.5c0,0.1,0,0.3-0.1,0.4       c-0.1,0.1-0.2,0.2-0.3,0.3L67.3,205.3z"/><path class="st10" d="M83.9,193.6c0.1-0.1,0.2-0.2,0.3-0.3c0.1-0.1,0.2-0.1,0.3-0.1h3.3c0.3,0,0.5,0.1,0.6,0.3       c0.1,0.2,0.1,0.5,0,0.7L79.6,212c0,0.1-0.1,0.2-0.3,0.3c-0.1,0.1-0.2,0.1-0.4,0.1h-3.2c-0.3,0-0.5-0.1-0.6-0.3       c-0.1-0.2-0.1-0.5,0-0.7L83.9,193.6z"/><path class="st10" d="M94.6,205.3l-5.4-2.2c-0.1,0-0.2-0.1-0.3-0.3c-0.1-0.1-0.1-0.3-0.1-0.4v-3.5c0-0.3,0.1-0.5,0.3-0.6       c0.2-0.1,0.4-0.2,0.7-0.1l12.2,4.9c0.1,0,0.2,0.1,0.3,0.3c0.1,0.1,0.1,0.3,0.1,0.4v2.8c0,0.1,0,0.3-0.1,0.4       c-0.1,0.1-0.2,0.2-0.3,0.3l-12.2,4.9c-0.3,0.1-0.5,0.1-0.7-0.1c-0.2-0.1-0.3-0.3-0.3-0.6v-3.5c0-0.1,0-0.3,0.1-0.4       c0.1-0.1,0.2-0.2,0.3-0.3L94.6,205.3z"/></g></g></g><g><linearGradient gradientUnits="userSpaceOnUse" id="SVGID_7_" x1="388.2574" x2="388.2574" y1="474.4192" y2="411.6106"><stop offset="0" style="stop-color:#A00E11"/><stop offset="6.770599e-02" style="stop-color:#B01A14"/><stop offset="0.2138" style="stop-color:#CD3019"/><stop offset="0.3704" style="stop-color:#E3411D"/><stop offset="0.5404" style="stop-color:#F34E20"/><stop offset="0.7335" style="stop-color:#FC5521"/><stop offset="1" style="stop-color:#FF5722"/></linearGradient><path class="st25" d="M405,462.8h-33.5c-6.2,0-11.3-5.1-11.3-11.3V418c0-6.2,5.1-11.3,11.3-11.3H405c6.2,0,11.3,5.1,11.3,11.3     v33.5C416.3,457.8,411.3,462.8,405,462.8z"/><g><g><path class="st10" d="M374.6,434.6c0,0.7,0.1,1.4,0.4,2c0.3,0.6,0.6,1.1,1.1,1.5c1,0.9,2.4,1.3,4.2,1.3c1.2,0,2.4-0.1,3.5-0.4       h0c0.6-0.2,1.1-0.3,1.6-0.5c0.5-0.1,0.9-0.3,1.3-0.5c0.3-0.1,0.5-0.1,0.7,0.1c0.2,0.1,0.3,0.3,0.3,0.6l-0.1,3.6       c0,0.1,0,0.3-0.1,0.4c-0.1,0.1-0.2,0.2-0.3,0.3c-1.1,0.4-2.3,0.7-3.6,0.9c-1.3,0.2-2.7,0.3-4.2,0.3c-3.5,0-6.2-0.8-8.2-2.4       c-2.1-1.6-3.1-3.9-3.1-6.9c0-1.6,0.2-3,0.7-4.3c0.5-1.2,1.2-2.3,2.2-3.1c0.9-0.8,2.1-1.5,3.5-1.9c1.4-0.4,2.9-0.7,4.7-0.7       c1.5,0,2.9,0.1,4.1,0.3c1.2,0.2,2.2,0.4,3.1,0.7c0.1,0,0.2,0.1,0.3,0.2c0.1,0.1,0.1,0.3,0.2,0.4l0.3,3.5c0,0.3-0.1,0.5-0.3,0.7       c-0.2,0.2-0.4,0.2-0.7,0.1c-0.7-0.3-1.6-0.5-2.7-0.8c-0.5-0.1-1.1-0.3-1.6-0.3c-0.5-0.1-1.1-0.1-1.6-0.1       c-1.8,0-3.1,0.4-4.1,1.3C375.2,431.6,374.7,432.9,374.6,434.6L374.6,434.6z"/><path class="st10" d="M393.5,435l0.1-1.1h-1.5c-0.2,0-0.4-0.1-0.5-0.2c-0.2-0.1-0.2-0.3-0.2-0.5v-2.8c0-0.2,0.1-0.4,0.2-0.5       c0.1-0.1,0.3-0.2,0.5-0.2h2l0.5-3.9c0-0.2,0.1-0.3,0.2-0.4c0.1-0.1,0.3-0.2,0.5-0.2h2.9c0.2,0,0.4,0.1,0.6,0.2       c0.2,0.2,0.2,0.3,0.2,0.6l-0.5,3.7h1.6l0.5-3.9c0-0.2,0.1-0.3,0.2-0.4c0.1-0.1,0.3-0.2,0.5-0.2h2.9c0.2,0,0.4,0.1,0.6,0.2       c0.1,0.2,0.2,0.3,0.2,0.6l-0.5,3.7h1.6c0.2,0,0.4,0.1,0.5,0.2c0.1,0.1,0.2,0.3,0.2,0.5v2.8c0,0.2-0.1,0.4-0.2,0.5       c-0.1,0.1-0.3,0.2-0.5,0.2h-2.1l-0.1,1.1h1.5c0.2,0,0.4,0.1,0.5,0.2c0.1,0.1,0.2,0.3,0.2,0.5v2.8c0,0.2-0.1,0.4-0.2,0.5       c-0.1,0.1-0.3,0.2-0.5,0.2h-2l-0.4,3.9c0,0.2-0.1,0.3-0.2,0.5c-0.1,0.1-0.3,0.2-0.5,0.2h-2.9c-0.2,0-0.4-0.1-0.6-0.2       c-0.1-0.2-0.2-0.3-0.2-0.6l0.5-3.7h-1.6l-0.4,3.9c0,0.2-0.1,0.3-0.2,0.5c-0.1,0.1-0.3,0.2-0.5,0.2h-2.9c-0.2,0-0.4-0.1-0.6-0.2       c-0.2-0.2-0.2-0.3-0.2-0.6l0.4-3.7h-1.6c-0.2,0-0.4-0.1-0.5-0.2c-0.1-0.1-0.2-0.3-0.2-0.5v-2.8c0-0.2,0.1-0.4,0.2-0.5       c0.1-0.1,0.3-0.2,0.5-0.2H393.5z M397.3,435.4h2.6l0.2-1.9h-2.6L397.3,435.4z"/></g></g></g><g><path class="st5" d="M496.2,463.7H15.8c-0.8,0-1.5-0.7-1.5-1.5c0-0.8,0.7-1.5,1.5-1.5h480.4c0.8,0,1.5,0.7,1.5,1.5     C497.7,463,497,463.7,496.2,463.7z"/></g><path class="st22" d="M79,341.1c0,2.8-2.3,5.1-5.1,5.1c-2.8,0-5.1-2.3-5.1-5.1s2.3-5.1,5.1-5.1C76.7,336,79,338.3,79,341.1z"/><path class="st2" d="M32.6,263.2l-8,13.9c-1,1.7,0.2,3.8,2.2,3.8h16c1.9,0,3.2-2.1,2.2-3.8l-8-13.9    C36,261.5,33.6,261.5,32.6,263.2l-8,13.9c-1,1.7,0.2,3.8,2.2,3.8h16c1.9,0,3.2-2.1,2.2-3.8l-8-13.9    C36,261.5,33.6,261.5,32.6,263.2z"/><polygon class="st21" points="118.7,121.7 111.1,121.7 107.3,128.4 111.1,135 118.7,135 122.5,128.4   "/><polygon class="st22" points="243,199.1 235.3,199.1 231.5,205.8 235.3,212.4 243,212.4 246.8,205.8   "/></g></g></svg>